<svg width="145" height="38" viewBox="0 0 145 38" fill="none" xmlns="http://www.w3.org/2000/svg">
<g filter="url(#filter0_dd_7048_409)">
<path d="M18.9239 34C10.6937 33.9849 3.76546 27.649 3.06187 19.4971C2.33825 11.1119 8.03707 3.63729 16.2298 2.24018C27.7476 0.256135 37.4751 10.8887 34.4379 22.1559C34.2251 22.946 34.0523 23.0965 33.2711 22.8131C32.5938 22.5749 31.9558 22.2368 31.3782 21.8097C29.4546 20.3681 28.1148 18.2796 27.6049 15.9278C27.1354 13.9516 26.0052 12.1957 24.4019 10.9519C22.7986 9.70803 20.8187 9.05113 18.7912 9.09028C14.7099 9.158 11.0668 12.183 10.278 16.1561C9.19637 21.722 13.1049 26.6733 18.7737 26.899C22.0287 27.0295 24.4675 28.9508 25.434 32.0987C25.5767 32.5602 25.3664 32.6656 25.0434 32.8085C23.3984 33.5435 21.0597 34.005 18.9239 34Z" fill="#C80013"/>
<path d="M34.7259 28.7903C34.7184 29.5265 34.4934 30.244 34.0791 30.8521C33.6648 31.4603 33.0799 31.9318 32.3982 32.2071C31.7166 32.4824 30.9688 32.5492 30.2493 32.399C29.5298 32.2488 28.8709 31.8884 28.3557 31.3633C27.8406 30.8381 27.4924 30.1718 27.355 29.4485C27.2177 28.7252 27.2974 27.9774 27.5842 27.2995C27.8709 26.6216 28.3517 26.044 28.9659 25.6397C29.5802 25.2354 30.3002 25.0225 31.0352 25.0279C31.5257 25.0264 32.0117 25.1233 32.4644 25.3126C32.9171 25.502 33.3274 25.7802 33.6712 26.1307C34.0151 26.4812 34.2855 26.8971 34.4666 27.3538C34.6477 27.8105 34.7359 28.2989 34.7259 28.7903Z" fill="#C80013"/>
</g>
<path d="M68.2197 20.8781H57.0486C55.6795 20.8781 54.3835 20.6317 53.1606 20.1388C51.9376 19.646 50.8697 18.9615 49.9571 18.0853C49.0444 17.2091 48.3234 16.1687 47.794 14.9639C47.2647 13.741 47 12.4084 47 10.9664C47 9.54265 47.2555 8.22839 47.7666 7.02366C48.2777 5.80068 48.9805 4.74197 49.8749 3.84755C50.7876 2.95313 51.8463 2.25949 53.051 1.76665C54.274 1.25555 55.5974 1 57.0212 1C58.3902 1 59.6679 1.24642 60.8544 1.73927C62.0592 2.23211 63.1087 2.91662 64.0032 3.79279C64.8976 4.6507 65.6003 5.6729 66.1114 6.85938C66.6408 8.0276 66.9055 9.30535 66.9055 10.6926C66.9055 11.514 66.8051 12.3263 66.6043 13.1295C66.4217 13.9144 66.1388 14.6536 65.7555 15.3473C65.3904 16.0409 64.925 16.6615 64.3591 17.2091C63.8115 17.7567 63.1817 18.1948 62.4699 18.5234V18.5781H68.2197V20.8781ZM56.939 18.4139C57.9977 18.4139 58.9652 18.2222 59.8414 17.8389C60.7358 17.4373 61.4933 16.8988 62.1139 16.2234C62.7528 15.5298 63.2456 14.7175 63.5925 13.7866C63.9393 12.8557 64.1127 11.8608 64.1127 10.8021C64.1127 9.77994 63.9301 8.82163 63.5651 7.92721C63.2183 7.03279 62.7254 6.25701 62.0865 5.59989C61.4477 4.94276 60.6901 4.42253 59.814 4.03921C58.9378 3.65589 57.9795 3.46422 56.939 3.46422C55.9168 3.46422 54.9677 3.65589 54.0915 4.03921C53.2336 4.42253 52.4852 4.94276 51.8463 5.59989C51.2074 6.25701 50.7055 7.03279 50.3404 7.92721C49.9753 8.80338 49.7928 9.74344 49.7928 10.7474C49.7928 11.8061 49.9662 12.8009 50.313 13.7318C50.6598 14.6628 51.1435 15.475 51.7642 16.1687C52.403 16.8623 53.1606 17.4099 54.0367 17.8115C54.9129 18.2131 55.8803 18.4139 56.939 18.4139Z" fill="#1F2F44"/>
<path d="M81.8559 20.8781H79.3917V18.8793H79.337C79.0267 19.573 78.4882 20.1388 77.7215 20.5769C76.9549 20.9967 76.0696 21.2066 75.0656 21.2066C74.4268 21.2066 73.8244 21.1063 73.2585 20.9055C72.6927 20.7229 72.1907 20.4309 71.7526 20.0293C71.3328 19.6277 70.9951 19.1166 70.7396 18.496C70.484 17.8571 70.3562 17.1087 70.3562 16.2508V7.89983H72.8205V15.5663C72.8205 16.1687 72.9026 16.6889 73.0669 17.127C73.2312 17.5468 73.4502 17.8936 73.724 18.1674C73.9978 18.423 74.3081 18.6146 74.6549 18.7424C75.02 18.8519 75.3942 18.9067 75.7775 18.9067C76.2886 18.9067 76.7632 18.8246 77.2013 18.6603C77.6394 18.496 78.0227 18.2404 78.3513 17.8936C78.6798 17.5286 78.9354 17.0722 79.1179 16.5246C79.3005 15.977 79.3917 15.329 79.3917 14.5806V7.89983H81.8559V20.8781Z" fill="#1F2F44"/>
<path d="M94.8524 11.3497C94.396 10.8752 93.9123 10.5192 93.4012 10.2819C92.9084 10.0264 92.3151 9.89859 91.6215 9.89859C90.9461 9.89859 90.3529 10.0264 89.8418 10.2819C89.3489 10.5192 88.9291 10.8569 88.5823 11.295C88.2537 11.7148 87.9982 12.2077 87.8156 12.7735C87.6514 13.3211 87.5692 13.8961 87.5692 14.4985C87.5692 15.1008 87.6696 15.6758 87.8704 16.2234C88.0712 16.7528 88.3541 17.2183 88.7192 17.6198C89.0843 18.0214 89.5224 18.3408 90.0335 18.5781C90.5446 18.7972 91.1195 18.9067 91.7584 18.9067C92.452 18.9067 93.0453 18.7881 93.5381 18.5508C94.031 18.2952 94.4873 17.9301 94.9071 17.4555L96.6595 19.2079C96.0206 19.9198 95.2722 20.4309 94.4143 20.7412C93.5746 21.0515 92.6802 21.2066 91.731 21.2066C90.7271 21.2066 89.8053 21.0424 88.9656 20.7138C88.1442 20.3852 87.4323 19.9289 86.83 19.3448C86.2276 18.7424 85.7621 18.0305 85.4336 17.2091C85.105 16.3695 84.9407 15.4477 84.9407 14.4437C84.9407 13.4398 85.105 12.518 85.4336 11.6783C85.7621 10.8386 86.2185 10.1176 86.8026 9.51527C87.4049 8.9129 88.1168 8.44743 88.9382 8.11887C89.7779 7.77205 90.7088 7.59865 91.731 7.59865C92.6802 7.59865 93.5838 7.77205 94.4417 8.11887C95.3178 8.44743 96.0754 8.95853 96.7142 9.65217L94.8524 11.3497Z" fill="#1F2F44"/>
<path d="M100.778 14.389C100.778 15.0461 100.878 15.6576 101.079 16.2234C101.28 16.771 101.563 17.2456 101.928 17.6472C102.293 18.0305 102.74 18.3408 103.27 18.5781C103.799 18.7972 104.392 18.9067 105.049 18.9067C105.707 18.9067 106.3 18.7972 106.829 18.5781C107.358 18.3408 107.806 18.0305 108.171 17.6472C108.536 17.2456 108.819 16.771 109.02 16.2234C109.22 15.6576 109.321 15.0461 109.321 14.389C109.321 13.7318 109.22 13.1295 109.02 12.5819C108.819 12.016 108.536 11.5414 108.171 11.1581C107.806 10.7565 107.358 10.4462 106.829 10.2272C106.3 9.98986 105.707 9.87121 105.049 9.87121C104.392 9.87121 103.799 9.98986 103.27 10.2272C102.74 10.4462 102.293 10.7565 101.928 11.1581C101.563 11.5414 101.28 12.016 101.079 12.5819C100.878 13.1295 100.778 13.7318 100.778 14.389ZM98.1496 14.389C98.1496 13.4398 98.323 12.5545 98.6698 11.7331C99.0349 10.9117 99.5277 10.1906 100.148 9.57003C100.769 8.94941 101.499 8.46569 102.339 8.11887C103.178 7.7538 104.082 7.57127 105.049 7.57127C106.017 7.57127 106.92 7.7538 107.76 8.11887C108.6 8.46569 109.33 8.94941 109.95 9.57003C110.571 10.1906 111.055 10.9117 111.402 11.7331C111.767 12.5545 111.949 13.4398 111.949 14.389C111.949 15.3381 111.767 16.2326 111.402 17.0722C111.055 17.8936 110.571 18.6146 109.95 19.2353C109.33 19.8376 108.6 20.3214 107.76 20.6864C106.92 21.0332 106.017 21.2066 105.049 21.2066C104.082 21.2066 103.178 21.0332 102.339 20.6864C101.499 20.3214 100.769 19.8376 100.148 19.2353C99.5277 18.6146 99.0349 17.8936 98.6698 17.0722C98.323 16.2326 98.1496 15.3381 98.1496 14.389Z" fill="#1F2F44"/>
<path d="M117.035 14.389C117.035 15.0461 117.136 15.6576 117.336 16.2234C117.537 16.771 117.82 17.2456 118.185 17.6472C118.55 18.0305 118.997 18.3408 119.527 18.5781C120.056 18.7972 120.649 18.9067 121.306 18.9067C121.964 18.9067 122.557 18.7972 123.086 18.5781C123.616 18.3408 124.063 18.0305 124.428 17.6472C124.793 17.2456 125.076 16.771 125.277 16.2234C125.477 15.6576 125.578 15.0461 125.578 14.389C125.578 13.7318 125.477 13.1295 125.277 12.5819C125.076 12.016 124.793 11.5414 124.428 11.1581C124.063 10.7565 123.616 10.4462 123.086 10.2272C122.557 9.98986 121.964 9.87121 121.306 9.87121C120.649 9.87121 120.056 9.98986 119.527 10.2272C118.997 10.4462 118.55 10.7565 118.185 11.1581C117.82 11.5414 117.537 12.016 117.336 12.5819C117.136 13.1295 117.035 13.7318 117.035 14.389ZM114.407 14.389C114.407 13.4398 114.58 12.5545 114.927 11.7331C115.292 10.9117 115.785 10.1906 116.405 9.57003C117.026 8.94941 117.756 8.46569 118.596 8.11887C119.435 7.7538 120.339 7.57127 121.306 7.57127C122.274 7.57127 123.177 7.7538 124.017 8.11887C124.857 8.46569 125.587 8.94941 126.208 9.57003C126.828 10.1906 127.312 10.9117 127.659 11.7331C128.024 12.5545 128.206 13.4398 128.206 14.389C128.206 15.3381 128.024 16.2326 127.659 17.0722C127.312 17.8936 126.828 18.6146 126.208 19.2353C125.587 19.8376 124.857 20.3214 124.017 20.6864C123.177 21.0332 122.274 21.2066 121.306 21.2066C120.339 21.2066 119.435 21.0332 118.596 20.6864C117.756 20.3214 117.026 19.8376 116.405 19.2353C115.785 18.6146 115.292 17.8936 114.927 17.0722C114.58 16.2326 114.407 15.3381 114.407 14.389Z" fill="#1F2F44"/>
<path d="M131.293 7.89983H133.758V9.89859H133.812C134.123 9.20496 134.661 8.64822 135.428 8.22839C136.194 7.79031 137.08 7.57127 138.084 7.57127C138.704 7.57127 139.298 7.67166 139.863 7.87245C140.448 8.05498 140.95 8.34704 141.369 8.74862C141.807 9.1502 142.154 9.67042 142.41 10.3093C142.665 10.9299 142.793 11.6692 142.793 12.5271V20.8781H140.329V13.2116C140.329 12.6092 140.247 12.0981 140.082 11.6783C139.918 11.2402 139.699 10.8934 139.425 10.6379C139.152 10.3641 138.832 10.1724 138.467 10.0629C138.12 9.9351 137.755 9.87121 137.372 9.87121C136.861 9.87121 136.386 9.95335 135.948 10.1176C135.51 10.2819 135.127 10.5466 134.798 10.9117C134.47 11.2585 134.214 11.7057 134.031 12.2533C133.849 12.8009 133.758 13.4489 133.758 14.1973V20.8781H131.293V7.89983Z" fill="#1F2F44"/>
<g opacity="0.55">
<path d="M71.8331 31.205C71.8516 31.5351 71.9295 31.8031 72.0668 32.0091C72.3282 32.3947 72.7891 32.5875 73.4493 32.5875C73.7451 32.5875 74.0144 32.5452 74.2574 32.4607C74.7275 32.297 74.9625 32.0038 74.9625 31.5813C74.9625 31.2644 74.8635 31.0386 74.6654 30.9039C74.4647 30.7719 74.1504 30.657 73.7226 30.5593L72.9343 30.381C72.4194 30.2648 72.0549 30.1367 71.841 29.9968C71.4713 29.7538 71.2864 29.3907 71.2864 28.9074C71.2864 28.3845 71.4673 27.9554 71.8291 27.62C72.1909 27.2846 72.7032 27.1169 73.3661 27.1169C73.9761 27.1169 74.4937 27.2648 74.9189 27.5606C75.3467 27.8537 75.5606 28.3238 75.5606 28.9708H74.8199C74.7803 28.6592 74.6958 28.4202 74.5664 28.2538C74.326 27.9501 73.918 27.7983 73.3423 27.7983C72.8775 27.7983 72.5435 27.896 72.3401 28.0914C72.1368 28.2868 72.0351 28.5139 72.0351 28.7728C72.0351 29.058 72.1539 29.2666 72.3916 29.3986C72.5474 29.4831 72.9 29.5888 73.4493 29.7155L74.2653 29.9017C74.6588 29.9915 74.9625 30.1143 75.1764 30.2701C75.5461 30.5421 75.731 30.9369 75.731 31.4545C75.731 32.0989 75.4959 32.5597 75.0259 32.837C74.5584 33.1143 74.0144 33.2529 73.3938 33.2529C72.6702 33.2529 72.1038 33.0681 71.6944 32.6984C71.2851 32.3313 71.0844 31.8335 71.0923 31.205H71.8331Z" fill="#1A1818"/>
<path d="M76.6341 28.8599H77.3591V33.0826H76.6341V28.8599ZM76.6341 27.2635H77.3591V28.0716H76.6341V27.2635Z" fill="#1A1818"/>
<path d="M78.4405 28.8401H79.1456V29.4422C79.3146 29.2336 79.4678 29.0817 79.6051 28.9867C79.8401 28.8256 80.1069 28.745 80.4053 28.745C80.7433 28.745 81.0153 28.8282 81.2213 28.9946C81.3375 29.0897 81.4431 29.2296 81.5382 29.4145C81.6966 29.1874 81.8828 29.0197 82.0967 28.9114C82.3106 28.8005 82.551 28.745 82.8177 28.745C83.3881 28.745 83.7763 28.951 83.9823 29.363C84.0932 29.5848 84.1487 29.8832 84.1487 30.2582V33.0826H83.4079V30.1354C83.4079 29.8529 83.3366 29.6588 83.194 29.5531C83.054 29.4475 82.8824 29.3947 82.679 29.3947C82.3991 29.3947 82.1575 29.4884 81.9541 29.6759C81.7534 29.8634 81.6531 30.1764 81.6531 30.6147V33.0826H80.9282V30.3137C80.9282 30.0258 80.8938 29.8159 80.8252 29.6838C80.7169 29.4858 80.5149 29.3867 80.2191 29.3867C79.9497 29.3867 79.7041 29.4911 79.4823 29.6997C79.2631 29.9083 79.1535 30.286 79.1535 30.8326V33.0826H78.4405V28.8401Z" fill="#1A1818"/>
<path d="M86.9889 32.6033C87.3216 32.6033 87.5976 32.4647 87.8168 32.1874C88.0386 31.9074 88.1495 31.4902 88.1495 30.9356C88.1495 30.5976 88.1007 30.3071 88.003 30.0641C87.8181 29.5967 87.4801 29.363 86.9889 29.363C86.4951 29.363 86.157 29.6099 85.9748 30.1037C85.8771 30.3678 85.8282 30.7032 85.8282 31.1099C85.8282 31.4374 85.8771 31.716 85.9748 31.9457C86.1597 32.3841 86.4977 32.6033 86.9889 32.6033ZM85.1429 28.8599H85.8362V29.4224C85.9788 29.2296 86.1346 29.0804 86.3036 28.9748C86.5439 28.8163 86.8265 28.7371 87.1513 28.7371C87.6319 28.7371 88.04 28.922 88.3753 29.2917C88.7107 29.6588 88.8784 30.1843 88.8784 30.8683C88.8784 31.7926 88.6368 32.4528 88.1535 32.8489C87.8472 33.0998 87.4907 33.2252 87.084 33.2252C86.7644 33.2252 86.4964 33.1552 86.2798 33.0153C86.1531 32.936 86.0118 32.8 85.856 32.6073V34.7741H85.1429V28.8599Z" fill="#1A1818"/>
<path d="M89.7341 27.2635H90.4471V33.0826H89.7341V27.2635Z" fill="#1A1818"/>
<path d="M93.2873 28.745C93.5884 28.745 93.8802 28.8163 94.1628 28.9589C94.4453 29.0989 94.6605 29.2811 94.8084 29.5056C94.951 29.7195 95.0461 29.9691 95.0936 30.2543C95.1359 30.4497 95.157 30.7613 95.157 31.1891H92.0474C92.0606 31.6196 92.1623 31.9655 92.3525 32.227C92.5426 32.4858 92.837 32.6152 93.2358 32.6152C93.6082 32.6152 93.9053 32.4924 94.1271 32.2468C94.2539 32.1042 94.3436 31.9391 94.3965 31.7516H95.0976C95.0791 31.9074 95.0171 32.0817 94.9114 32.2745C94.8084 32.4647 94.6922 32.6205 94.5628 32.7419C94.3463 32.9532 94.0782 33.0958 93.7587 33.1698C93.587 33.212 93.3929 33.2331 93.1764 33.2331C92.6482 33.2331 92.2006 33.0417 91.8335 32.6588C91.4664 32.2732 91.2829 31.7345 91.2829 31.0426C91.2829 30.3612 91.4678 29.808 91.8375 29.3828C92.2072 28.9576 92.6905 28.745 93.2873 28.745ZM94.4242 30.6227C94.3951 30.3137 94.3278 30.0668 94.2222 29.8819C94.0267 29.5386 93.7006 29.3669 93.2437 29.3669C92.9163 29.3669 92.6416 29.4858 92.4198 29.7235C92.198 29.9585 92.0804 30.2582 92.0672 30.6227H94.4242Z" fill="#1A1818"/>
<path d="M96.0562 28.8401H96.7336V29.5729C96.7891 29.4303 96.9251 29.2573 97.1416 29.054C97.3582 28.848 97.6077 28.745 97.8903 28.745C97.9035 28.745 97.926 28.7463 97.9576 28.749C97.9893 28.7516 98.0435 28.7569 98.1201 28.7648V29.5175C98.0778 29.5095 98.0382 29.5043 98.0012 29.5016C97.9669 29.499 97.9286 29.4977 97.8863 29.4977C97.5272 29.4977 97.2512 29.6139 97.0584 29.8463C96.8657 30.076 96.7693 30.3414 96.7693 30.6425V33.0826H96.0562V28.8401Z" fill="#1A1818"/>
<path d="M101.166 27.2635H105.203V27.9765H101.955V29.7433H104.811V30.4365H101.955V33.0826H101.166V27.2635Z" fill="#1A1818"/>
<path d="M106.668 28.8401V31.6566C106.668 31.8731 106.703 32.05 106.771 32.1874C106.898 32.4409 107.135 32.5676 107.481 32.5676C107.977 32.5676 108.315 32.3458 108.495 31.9022C108.592 31.6645 108.641 31.3383 108.641 30.9237V28.8401H109.354V33.0826H108.681L108.689 32.4567C108.596 32.6178 108.481 32.7538 108.344 32.8647C108.072 33.0866 107.742 33.1975 107.354 33.1975C106.749 33.1975 106.337 32.9955 106.118 32.5914C105.999 32.3749 105.94 32.0857 105.94 31.7239V28.8401H106.668Z" fill="#1A1818"/>
<path d="M110.614 27.6557H111.335V28.8401H112.012V29.4224H111.335V32.1913C111.335 32.3392 111.385 32.4382 111.485 32.4884C111.541 32.5175 111.633 32.532 111.763 32.532C111.797 32.532 111.834 32.532 111.874 32.532C111.913 32.5294 111.959 32.5254 112.012 32.5201V33.0826C111.93 33.1064 111.845 33.1235 111.755 33.1341C111.668 33.1447 111.573 33.15 111.47 33.15C111.137 33.15 110.911 33.0654 110.792 32.8964C110.673 32.7248 110.614 32.5029 110.614 32.2309V29.4224H110.04V28.8401H110.614V27.6557Z" fill="#1A1818"/>
<path d="M113.442 28.8401V31.6566C113.442 31.8731 113.477 32.05 113.545 32.1874C113.672 32.4409 113.908 32.5676 114.254 32.5676C114.751 32.5676 115.089 32.3458 115.268 31.9022C115.366 31.6645 115.415 31.3383 115.415 30.9237V28.8401H116.128V33.0826H115.455L115.462 32.4567C115.37 32.6178 115.255 32.7538 115.118 32.8647C114.846 33.0866 114.516 33.1975 114.128 33.1975C113.523 33.1975 113.111 32.9955 112.892 32.5914C112.773 32.3749 112.713 32.0857 112.713 31.7239V28.8401H113.442Z" fill="#1A1818"/>
<path d="M117.265 28.8401H117.942V29.5729C117.998 29.4303 118.134 29.2573 118.35 29.054C118.567 28.848 118.816 28.745 119.099 28.745C119.112 28.745 119.135 28.7463 119.166 28.749C119.198 28.7516 119.252 28.7569 119.329 28.7648V29.5175C119.286 29.5095 119.247 29.5043 119.21 29.5016C119.176 29.499 119.137 29.4977 119.095 29.4977C118.736 29.4977 118.46 29.6139 118.267 29.8463C118.074 30.076 117.978 30.3414 117.978 30.6425V33.0826H117.265V28.8401Z" fill="#1A1818"/>
<path d="M121.713 28.745C122.014 28.745 122.306 28.8163 122.589 28.9589C122.871 29.0989 123.087 29.2811 123.234 29.5056C123.377 29.7195 123.472 29.9691 123.52 30.2543C123.562 30.4497 123.583 30.7613 123.583 31.1891H120.473C120.487 31.6196 120.588 31.9655 120.779 32.227C120.969 32.4858 121.263 32.6152 121.662 32.6152C122.034 32.6152 122.331 32.4924 122.553 32.2468C122.68 32.1042 122.77 31.9391 122.823 31.7516H123.524C123.505 31.9074 123.443 32.0817 123.337 32.2745C123.234 32.4647 123.118 32.6205 122.989 32.7419C122.772 32.9532 122.504 33.0958 122.185 33.1698C122.013 33.212 121.819 33.2331 121.602 33.2331C121.074 33.2331 120.627 33.0417 120.26 32.6588C119.893 32.2732 119.709 31.7345 119.709 31.0426C119.709 30.3612 119.894 29.808 120.264 29.3828C120.633 28.9576 121.117 28.745 121.713 28.745ZM122.85 30.6227C122.821 30.3137 122.754 30.0668 122.648 29.8819C122.453 29.5386 122.127 29.3669 121.67 29.3669C121.342 29.3669 121.068 29.4858 120.846 29.7235C120.624 29.9585 120.506 30.2582 120.493 30.6227H122.85Z" fill="#1A1818"/>
<path d="M124.613 33.9105C124.795 33.8788 124.923 33.7507 124.997 33.5263C125.037 33.4074 125.057 33.2926 125.057 33.1816C125.057 33.1632 125.055 33.146 125.053 33.1301C125.053 33.1169 125.05 33.1011 125.045 33.0826H124.613V32.2191H125.461V33.0192C125.461 33.3335 125.397 33.6095 125.271 33.8471C125.144 34.0848 124.925 34.2314 124.613 34.2868V33.9105Z" fill="#1A1818"/>
<path d="M128.978 28.8401H129.656V29.4422C129.856 29.194 130.069 29.0157 130.293 28.9074C130.518 28.7992 130.767 28.745 131.042 28.745C131.644 28.745 132.051 28.955 132.262 29.3749C132.378 29.6046 132.437 29.9334 132.437 30.3612V33.0826H131.712V30.4088C131.712 30.15 131.673 29.9413 131.597 29.7829C131.47 29.5188 131.24 29.3867 130.907 29.3867C130.738 29.3867 130.6 29.4039 130.492 29.4382C130.296 29.4963 130.124 29.6125 129.977 29.7868C129.858 29.9268 129.78 30.072 129.743 30.2226C129.709 30.3705 129.691 30.5831 129.691 30.8603V33.0826H128.978V28.8401Z" fill="#1A1818"/>
<path d="M135.178 32.6231C135.65 32.6231 135.974 32.4448 136.148 32.0883C136.325 31.7292 136.414 31.3304 136.414 30.892C136.414 30.4959 136.35 30.1737 136.223 29.9255C136.023 29.5346 135.677 29.3392 135.186 29.3392C134.75 29.3392 134.433 29.5056 134.235 29.8383C134.037 30.1711 133.938 30.5725 133.938 31.0426C133.938 31.4941 134.037 31.8705 134.235 32.1715C134.433 32.4726 134.747 32.6231 135.178 32.6231ZM135.205 28.7173C135.752 28.7173 136.214 28.8995 136.592 29.2639C136.97 29.6284 137.158 30.1645 137.158 30.8722C137.158 31.5562 136.992 32.1213 136.659 32.5676C136.326 33.0139 135.81 33.2371 135.11 33.2371C134.527 33.2371 134.063 33.0404 133.72 32.6469C133.377 32.2507 133.205 31.7199 133.205 31.0544C133.205 30.3414 133.386 29.7736 133.748 29.3511C134.109 28.9286 134.595 28.7173 135.205 28.7173Z" fill="#1A1818"/>
<path d="M138.339 28.8401L139.155 32.1834L139.983 28.8401H140.783L141.615 32.1636L142.482 28.8401H143.195L141.963 33.0826H141.223L140.359 29.7987L139.523 33.0826H138.782L137.558 28.8401H138.339Z" fill="#1A1818"/>
</g>
<defs>
<filter id="filter0_dd_7048_409" x="0" y="0" width="38" height="38" filterUnits="userSpaceOnUse" color-interpolation-filters="sRGB">
<feFlood flood-opacity="0" result="BackgroundImageFix"/>
<feColorMatrix in="SourceAlpha" type="matrix" values="0 0 0 0 0 0 0 0 0 0 0 0 0 0 0 0 0 0 127 0" result="hardAlpha"/>
<feOffset dy="1"/>
<feGaussianBlur stdDeviation="1"/>
<feColorMatrix type="matrix" values="0 0 0 0 0.0627451 0 0 0 0 0.0941176 0 0 0 0 0.156863 0 0 0 0.06 0"/>
<feBlend mode="normal" in2="BackgroundImageFix" result="effect1_dropShadow_7048_409"/>
<feColorMatrix in="SourceAlpha" type="matrix" values="0 0 0 0 0 0 0 0 0 0 0 0 0 0 0 0 0 0 127 0" result="hardAlpha"/>
<feOffset dy="1"/>
<feGaussianBlur stdDeviation="1.5"/>
<feColorMatrix type="matrix" values="0 0 0 0 0.0627451 0 0 0 0 0.0941176 0 0 0 0 0.156863 0 0 0 0.1 0"/>
<feBlend mode="normal" in2="effect1_dropShadow_7048_409" result="effect2_dropShadow_7048_409"/>
<feBlend mode="normal" in="SourceGraphic" in2="effect2_dropShadow_7048_409" result="shape"/>
</filter>
</defs>
</svg>
